# xmcd
# 
# Track frame offsets:
#     182
#     13065
#     31730
# 
# Disc length: 798
# 
# Revision: 0
# Processed by: cddbd v1.5.2PL0 Copyright (c) Steve Scherf et al.
# Submitted via: BonkEnc v1.0
# 
DISCID=17031c03
DTITLE=Front 242 - Off Promo CD
DYEAR=1993
DGENRE=EBM
TTITLE0=Speed Angels
TTITLE1=Animal - Zoo
TTITLE2=Crushed
EXTD=
EXTT0=
EXTT1=
EXTT2=
PLAYORDER=
